<svg width="1200" height="400" viewBox="0 0 1200 400" fill="none" xmlns="http://www.w3.org/2000/svg">
  <defs>
    <linearGradient id="gridGrad1" x1="0%" y1="0%" x2="100%" y2="100%">
      <stop offset="0%" style="stop-color:#f8fbff;stop-opacity:1" />
      <stop offset="100%" style="stop-color:#f0f5ff;stop-opacity:1" />
    </linearGradient>
  </defs>
  
  <rect width="1200" height="400" fill="url(#gridGrad1)"/>
  
  <!-- Floating Cards Background -->
  <g opacity="0.05">
    <rect x="100" y="50" width="200" height="150" rx="12" fill="#0b5cff" />
    <rect x="400" y="120" width="200" height="150" rx="12" fill="#667eea" />
    <rect x="700" y="80" width="200" height="150" rx="12" fill="#764ba2" />
  </g>
  
  <!-- Animated Wave -->
  <path d="M0,200 Q150,100 300,200 T600,200 T900,200 T1200,200 L1200,400 L0,400 Z" fill="#0b5cff" opacity="0.08"/>
  
  <!-- Dots Pattern -->
  <g fill="#0b5cff" opacity="0.1">
    <circle cx="150" cy="80" r="4" />
    <circle cx="250" cy="120" r="4" />
    <circle cx="350" cy="90" r="4" />
    <circle cx="450" cy="140" r="4" />
    <circle cx="550" cy="110" r="4" />
    <circle cx="650" cy="150" r="4" />
    <circle cx="750" cy="95" r="4" />
    <circle cx="850" cy="130" r="4" />
    <circle cx="950" cy="105" r="4" />
    <circle cx="1050" cy="145" r="4" />
  </g>
</svg>